<?xml version="1.0" encoding="UTF-8"?>
<svg xmlns="http://www.w3.org/2000/svg" xmlns:xlink="http://www.w3.org/1999/xlink" width="375pt" height="374.999991pt" viewBox="0 0 375 374.999991" version="1.2">
<defs>
<clipPath id="clip1">
  <path d="M 65.269531 48.863281 L 309.769531 48.863281 L 309.769531 293 L 65.269531 293 Z M 65.269531 48.863281 "/>
</clipPath>
</defs>
<g id="surface1">
<g clip-path="url(#clip1)" clip-rule="nonzero">
<path style=" stroke:none;fill-rule:nonzero;fill:rgb(86.669922%,82.749939%,82.749939%);fill-opacity:1;" d="M 179.472656 48.863281 C 116.472656 48.863281 65.269531 100.066406 65.269531 163.066406 C 65.269531 226.070312 116.472656 277.269531 179.472656 277.269531 C 190.160156 277.269531 200.601562 275.730469 210.621094 272.890625 L 210.621094 252.855469 C 202.855469 260.359375 194.054688 265.164062 184.664062 266.484375 L 184.664062 225.359375 L 210.621094 225.359375 L 210.621094 214.976562 L 184.664062 214.976562 L 184.664062 168.257812 L 210.621094 168.257812 L 210.621094 157.875 L 184.664062 157.875 L 184.664062 111.15625 L 233.3125 111.15625 C 237.953125 124.558594 240.894531 139.808594 241.542969 156.113281 L 246.957031 161.203125 L 252.089844 165.988281 L 254.5 168.257812 L 283.113281 168.257812 C 282.707031 176.1875 281.449219 183.972656 279.300781 191.515625 L 287.695312 199.386719 C 291.609375 187.765625 293.675781 175.558594 293.675781 163.066406 C 293.675781 100.066406 242.476562 48.863281 179.472656 48.863281 Z M 174.28125 59.671875 L 174.28125 100.773438 L 129.855469 100.773438 C 131.800781 96.496094 133.871094 92.421875 136.160156 88.730469 C 146.523438 72 159.886719 61.699219 174.28125 59.671875 Z M 184.664062 59.671875 C 202.855469 62.1875 218.8125 77.757812 229.195312 100.773438 L 184.664062 100.773438 Z M 218.40625 66.789062 C 236.046875 73.925781 251.214844 85.789062 262.46875 100.773438 L 240.308594 100.773438 C 234.628906 87.128906 227.148438 75.550781 218.40625 66.789062 Z M 140.15625 66.992188 C 135.472656 71.714844 131.132812 77.128906 127.339844 83.253906 C 124.015625 88.628906 121.054688 94.507812 118.476562 100.773438 L 96.519531 100.773438 C 107.691406 85.910156 122.695312 74.128906 140.15625 66.992188 Z M 89.625 111.15625 L 114.6875 111.15625 C 110.125 125.308594 107.425781 141.128906 106.960938 157.875 L 75.773438 157.875 C 76.625 140.882812 81.59375 125.027344 89.625 111.15625 Z M 125.675781 111.15625 L 174.28125 111.15625 L 174.28125 157.875 L 117.34375 157.875 C 117.851562 140.882812 120.808594 124.984375 125.675781 111.15625 Z M 244.117188 111.15625 L 269.40625 111.15625 C 277.414062 125.027344 282.320312 140.902344 283.152344 157.875 L 251.988281 157.875 C 251.5 141.105469 248.742188 125.289062 244.117188 111.15625 Z M 75.773438 168.257812 L 106.960938 168.257812 C 107.425781 185.007812 110.125 200.824219 114.6875 214.976562 L 89.625 214.976562 C 81.59375 201.109375 76.625 185.25 75.773438 168.257812 Z M 117.34375 168.257812 L 174.28125 168.257812 L 174.28125 214.976562 L 125.675781 214.976562 C 120.808594 201.148438 117.851562 185.25 117.34375 168.257812 Z M 231.140625 168.257812 C 228.382812 168.402344 226.195312 170.671875 226.195312 173.449219 L 226.195312 273.378906 C 226.195312 275.488281 227.449219 277.371094 229.398438 278.164062 C 231.34375 278.976562 233.574219 278.527344 235.054688 277.046875 L 250.6875 261.394531 L 263.726562 289.824219 C 264.921875 292.417969 268.007812 293.554688 270.621094 292.359375 L 290.65625 283.191406 C 293.25 281.996094 294.386719 278.914062 293.191406 276.296875 L 279.664062 246.773438 L 304.058594 246.773438 C 306.1875 246.773438 308.117188 245.476562 308.886719 243.488281 C 309.675781 241.5 309.167969 239.25 307.609375 237.789062 L 234.933594 169.65625 C 233.898438 168.703125 232.539062 168.199219 231.140625 168.257812 Z M 236.574219 185.433594 L 290.917969 236.390625 L 272.265625 236.390625 C 271.453125 236.390625 270.664062 236.574219 269.933594 236.9375 L 269.386719 237.222656 C 266.890625 238.480469 265.816406 241.480469 266.992188 244.015625 L 281.59375 275.890625 L 270.988281 280.757812 L 257.015625 250.28125 C 256.324219 248.742188 254.886719 247.644531 253.222656 247.339844 C 251.539062 247.039062 249.835938 247.585938 248.640625 248.800781 L 236.574219 260.847656 Z M 96.519531 225.359375 L 118.476562 225.359375 C 121.054688 231.625 124.015625 237.507812 127.339844 242.878906 C 131.132812 249.003906 135.472656 254.417969 140.15625 259.144531 C 122.695312 252.003906 107.691406 240.222656 96.519531 225.359375 Z M 129.855469 225.359375 L 174.28125 225.359375 L 174.28125 266.464844 C 159.886719 264.433594 146.523438 254.132812 136.160156 237.425781 C 133.871094 233.714844 131.800781 229.640625 129.855469 225.359375 Z M 129.855469 225.359375 "/>
</g>
</g>
</svg>
